#!OML:ASF C:\Vicon Data\Big\jianyuan-13\jianyuan\Session 1\Capture.male.ASF
:FULLY-SPECIFIED
:DEGREES
167
root -7.824535 17.446572 -15.883494 9.903929 4.890286 1.709920
lowerback -9.501718 0.321656 -2.602884 
upperback -0.566040 0.653791 -0.323669 
thorax 4.715195 0.241661 1.213314 
lowerneck -9.522205 -2.418912 4.530665 
upperneck 10.972557 -3.506966 -4.157433 
head 4.692685 -1.841033 -2.262135 
rclavicle 0.000000 0.000000 
rhumerus -37.313015 -14.377307 -82.622315 
rradius 33.241579 
rwrist 23.737831 
rhand -20.217993 -15.608423 
rfingers 0.000000 
rthumb 6.129359 -45.499799 
lclavicle 0.000000 0.000000 
lhumerus -51.161256 42.371770 58.308599 
lradius 21.793425 
lwrist -71.526847 
lhand -22.884971 -1.235135 
lfingers 0.000000 
lthumb 3.554152 28.714957 
rfemur -21.462586 -2.376856 21.264799 
rtibia 53.529626 
rfoot -4.677852 2.337389 
rtoes -28.838178 
lfemur -22.196733 -6.262994 -22.178140 
ltibia 16.242679 
lfoot -5.454606 2.999903 
ltoes -12.392870 
168
root -7.823438 17.446660 -15.872767 9.905857 4.867814 1.730487
lowerback -9.494575 0.311191 -2.621858 
upperback -0.561141 0.642021 -0.324810 
thorax 4.716588 0.235484 1.221195 
lowerneck -9.521688 -2.409768 4.530203 
upperneck 10.977856 -3.493412 -4.168962 
head 4.694618 -1.835235 -2.264889 
rclavicle 0.000000 0.000000 
rhumerus -37.338941 -14.372512 -82.616556 
rradius 33.200807 
rwrist 23.798442 
rhand -20.223336 -15.601701 
rfingers 0.000000 
rthumb 6.124200 -45.493230 
lclavicle 0.000000 0.000000 
lhumerus -50.981304 42.322107 58.511301 
lradius 21.799293 
lwrist -71.337458 
lhand -22.913460 -1.263087 
lfingers 0.000000 
lthumb 3.526640 28.687476 
rfemur -21.617530 -2.381875 21.224903 
rtibia 53.726767 
rfoot -4.685748 2.287754 
rtoes -28.613250 
lfemur -22.168858 -6.261315 -22.209387 
ltibia 16.268561 
lfoot -5.476227 3.000442 
ltoes -12.371060 
169
root -7.822132 17.446466 -15.862204 9.914211 4.844697 1.749896
lowerback -9.491552 0.304435 -2.641993 
upperback -0.560334 0.635059 -0.324051 
thorax 4.715789 0.231613 1.232362 
lowerneck -9.520706 -2.399842 4.531749 
upperneck 10.983021 -3.478531 -4.185173 
head 4.696366 -1.829012 -2.269326 
rclavicle 0.000000 0.000000 
rhumerus -37.367088 -14.391124 -82.593005 
rradius 33.157683 
rwrist 23.865947 
rhand -20.222997 -15.585227 
rfingers 0.000000 
rthumb 6.124521 -45.476745 
lclavicle 0.000000 0.000000 
lhumerus -50.796946 42.253755 58.737549 
lradius 21.818690 
lwrist -71.155169 
lhand -22.939553 -1.253613 
lfingers 0.000000 
lthumb 3.501444 28.697376 
rfemur -21.780368 -2.392089 21.186178 
rtibia 53.914277 
rfoot -4.683526 2.231756 
rtoes -28.382848 
lfemur -22.147626 -6.259355 -22.239509 
ltibia 16.291233 
lfoot -5.498425 3.006590 
ltoes -12.377351 
170
root -7.820645 17.446033 -15.851780 9.928068 4.821029 1.768311
lowerback -9.492057 0.300853 -2.663121 
upperback -0.563032 0.632214 -0.321666 
thorax 4.713114 0.229716 1.246343 
lowerneck -9.519325 -2.389248 4.535014 
upperneck 10.988073 -3.462515 -4.205394 
head 4.697955 -1.822426 -2.275204 
rclavicle 0.000000 0.000000 
rhumerus -37.397135 -14.429778 -82.554221 
rradius 33.112547 
rwrist 23.939352 
rhand -20.217794 -15.560404 
rfingers 0.000000 
rthumb 6.129536 -45.451771 
lclavicle 0.000000 0.000000 
lhumerus -50.608814 42.169401 58.983955 
lradius 21.849670 
lwrist -70.978961 
lhand -22.963595 -1.212095 
lfingers 0.000000 
lthumb 3.478230 28.739282 
rfemur -21.949965 -2.406750 21.148456 
rtibia 54.093543 
rfoot -4.672641 2.170308 
rtoes -28.147759 
lfemur -22.132082 -6.257154 -22.268667 
ltibia 16.311157 
lfoot -5.521117 3.017543 
ltoes -12.407702 
171
root -7.819158 17.445599 -15.841357 9.941925 4.797360 1.786727
lowerback -9.492562 0.297272 -2.684250 
upperback -0.565730 0.629369 -0.319280 
thorax 4.710438 0.227820 1.260324 
lowerneck -9.517944 -2.378653 4.538279 
upperneck 10.993124 -3.446498 -4.225614 
head 4.699544 -1.815839 -2.281081 
rclavicle 0.000000 0.000000 
rhumerus -37.427182 -14.468433 -82.515437 
rradius 33.067411 
rwrist 24.012758 
rhand -20.212591 -15.535582 
rfingers 0.000000 
rthumb 6.134550 -45.426796 
lclavicle 0.000000 0.000000 
lhumerus -50.420681 42.085048 59.230360 
lradius 21.880649 
lwrist -70.802752 
lhand -22.987637 -1.170577 
lfingers 0.000000 
lthumb 3.455015 28.781188 
rfemur -22.119561 -2.421412 21.110734 
rtibia 54.272808 
rfoot -4.661755 2.108861 
rtoes -27.912669 
lfemur -22.116538 -6.254954 -22.297826 
ltibia 16.331080 
lfoot -5.543808 3.028495 
ltoes -12.438053 
172
root -7.817671 17.445166 -15.830933 9.955782 4.773692 1.805142
lowerback -9.493068 0.293691 -2.705378 
upperback -0.568428 0.626524 -0.316895 
thorax 4.707763 0.225924 1.274305 
lowerneck -9.516563 -2.368058 4.541544 
upperneck 10.998175 -3.430481 -4.245834 
head 4.701133 -1.809253 -2.286958 
rclavicle 0.000000 0.000000 
rhumerus -37.457230 -14.507087 -82.476653 
rradius 33.022275 
rwrist 24.086164 
rhand -20.207388 -15.510759 
rfingers 0.000000 
rthumb 6.139565 -45.401822 
lclavicle 0.000000 0.000000 
lhumerus -50.232549 42.000694 59.476766 
lradius 21.911629 
lwrist -70.626544 
lhand -23.011679 -1.129059 
lfingers 0.000000 
lthumb 3.431801 28.823094 
rfemur -22.289158 -2.436074 21.073012 
rtibia 54.452073 
rfoot -4.650870 2.047413 
rtoes -27.677580 
lfemur -22.100994 -6.252753 -22.326984 
ltibia 16.351003 
lfoot -5.566500 3.039447 
ltoes -12.468404 
173
root -7.816184 17.444732 -15.820509 9.969639 4.750023 1.823558
lowerback -9.493573 0.290110 -2.726507 
upperback -0.571125 0.623678 -0.314509 
thorax 4.705088 0.224028 1.288286 
lowerneck -9.515182 -2.357464 4.544808 
upperneck 11.003226 -3.414465 -4.266054 
head 4.702722 -1.802667 -2.292835 
rclavicle 0.000000 0.000000 
rhumerus -37.487277 -14.545741 -82.437869 
rradius 32.977139 
rwrist 24.159570 
rhand -20.202185 -15.485936 
rfingers 0.000000 
rthumb 6.144579 -45.376847 
lclavicle 0.000000 0.000000 
lhumerus -50.044417 41.916340 59.723172 
lradius 21.942608 
lwrist -70.450335 
lhand -23.035721 -1.087541 
lfingers 0.000000 
lthumb 3.408587 28.865000 
rfemur -22.458754 -2.450735 21.035290 
rtibia 54.631339 
rfoot -4.639985 1.985966 
rtoes -27.442491 
lfemur -22.085450 -6.250553 -22.356143 
ltibia 16.370926 
lfoot -5.589191 3.050400 
ltoes -12.498755 
174
root -7.815414 17.444860 -15.810173 9.981788 4.727206 1.831123
lowerback -9.492644 0.285582 -2.730535 
upperback -0.572318 0.618072 -0.318263 
thorax 4.703554 0.221181 1.285879 
lowerneck -9.505666 -2.348038 4.556259 
upperneck 11.006601 -3.403302 -4.266002 
head 4.702498 -1.796767 -2.293882 
rclavicle 0.000000 0.000000 
rhumerus -37.510305 -14.599252 -82.413295 
rradius 32.933730 
rwrist 24.227115 
rhand -20.174694 -15.466496 
rfingers 0.000000 
rthumb 6.171118 -45.356616 
lclavicle 0.000000 0.000000 
lhumerus -49.890827 41.847285 59.899598 
lradius 21.980389 
lwrist -70.334815 
lhand -23.012874 -1.094758 
lfingers 0.000000 
lthumb 3.430652 28.857417 
rfemur -22.619435 -2.448753 21.014016 
rtibia 54.793316 
rfoot -4.696702 1.897690 
rtoes -27.369247 
lfemur -22.068216 -6.235466 -22.373264 
ltibia 16.389604 
lfoot -5.611211 3.050448 
ltoes -12.490557 
175
root -7.814701 17.445033 -15.799843 9.993801 4.704456 1.837822
lowerback -9.491600 0.280979 -2.733196 
upperback -0.573390 0.612245 -0.322508 
thorax 4.702111 0.218258 1.282163 
lowerneck -9.495499 -2.338705 4.568363 
upperneck 11.009841 -3.392526 -4.264330 
head 4.702129 -1.790921 -2.294543 
rclavicle 0.000000 0.000000 
rhumerus -37.532772 -14.653951 -82.389856 
rradius 32.890460 
rwrist 24.294192 
rhand -20.145422 -15.447485 
rfingers 0.000000 
rthumb 6.199377 -45.336763 
lclavicle 0.000000 0.000000 
lhumerus -49.739995 41.779452 60.070433 
lradius 22.018712 
lwrist -70.224144 
lhand -22.986281 -1.105869 
lfingers 0.000000 
lthumb 3.456333 28.845882 
rfemur -22.779405 -2.445442 20.994055 
rtibia 54.953911 
rfoot -4.758819 1.807271 
rtoes -27.308931 
lfemur -22.050847 -6.219351 -22.389423 
ltibia 16.408183 
lfoot -5.633177 3.049625 
ltoes -12.479281 
